<svg version="1.1" id="Layer_1" xmlns="http://www.w3.org/2000/svg" xmlns:xlink="http://www.w3.org/1999/xlink" x="0px" y="0px"
	 width="100%" viewBox="0 0 131 131" enable-background="new 0 0 131 131" xml:space="preserve">
<path fill="#1E2536" opacity="1.000000" stroke="none" 
	d="
M1.000000,111.000000 
	C1.000000,74.367889 1.000000,37.735783 1.000000,1.051836 
	C44.590900,1.051836 88.181877,1.051836 131.886429,1.051836 
	C131.886429,44.549538 131.886429,88.099464 131.886429,131.824707 
	C88.333931,131.824707 44.667000,131.824707 1.000000,131.824707 
	C1.000000,129.310394 1.000000,126.646248 1.377853,123.485649 
	C2.763133,123.007050 3.770559,123.024902 4.875425,123.247147 
	C4.972864,123.451530 5.055691,123.896751 5.053600,124.261856 
	C5.820816,125.195007 6.582134,126.237068 7.360796,126.250198 
	C11.002646,126.311577 14.653179,126.158005 18.293213,125.951126 
	C22.867048,125.691177 27.433689,125.304611 32.334557,124.899948 
	C33.103111,124.721085 33.540546,124.614937 34.434761,124.610367 
	C39.254494,124.639145 43.617451,124.566338 48.423637,124.593201 
	C51.582108,124.601982 54.297344,124.511101 57.441483,124.536972 
	C60.243805,124.599556 62.617226,124.545380 65.444916,124.606941 
	C71.269386,124.649445 76.639587,124.576210 82.375008,124.599586 
	C83.491196,124.779327 84.242149,124.862465 85.155533,125.137131 
	C85.880325,125.201019 86.442703,125.073372 87.469955,124.890213 
	C93.282600,124.706879 98.630371,124.579048 104.308586,124.556168 
	C105.093681,124.740219 105.548332,124.819321 106.203140,125.123718 
	C107.266212,125.197006 108.129128,125.045013 109.256363,124.774338 
	C109.685516,124.554947 109.850357,124.454239 110.310013,124.474213 
	C111.425674,124.491287 112.246498,124.387672 113.476906,124.359665 
	C115.264137,124.323013 116.641785,124.210770 118.251328,124.239563 
	C118.641525,124.468216 118.799835,124.555832 119.078171,124.871307 
	C120.144066,124.940514 121.089935,124.781860 122.308517,124.472900 
	C122.763115,124.222519 122.945000,124.122452 123.478195,123.876251 
	C123.957855,120.225250 124.258499,116.708878 124.025650,113.228188 
	C123.991379,112.715851 121.426765,112.372780 119.563522,111.912003 
	C109.397789,111.905518 99.701401,111.938423 89.541245,111.894058 
	C81.383865,111.875595 73.690262,111.934387 65.539017,111.915894 
	C61.054314,111.899727 57.027248,111.960854 52.552689,111.934654 
	C49.069843,111.904739 46.034496,111.962158 42.587605,111.932999 
	C40.781261,111.906799 39.386471,111.967186 37.581947,111.937897 
	C35.781532,111.905502 34.390854,111.962784 33.048027,111.912430 
	C33.095886,111.804787 33.131004,111.571815 32.924118,111.253754 
	C24.905331,110.720337 17.093817,110.482491 9.280523,110.349251 
	C8.842735,110.341789 8.390238,111.196892 7.585690,111.725586 
	C6.513716,111.963463 5.800637,112.126259 4.839174,112.015305 
	C3.393861,111.494362 2.196930,111.247185 1.000000,111.000000 
M48.739376,86.373840 
	C48.739376,79.088593 48.739376,71.803352 48.739376,64.975220 
	C58.841637,63.851540 68.620216,63.338707 78.161003,61.554379 
	C89.600830,59.414890 100.669907,55.759022 108.829681,46.659775 
	C114.534805,40.297806 114.386002,32.422462 107.965073,26.852478 
	C104.697014,24.017532 100.528954,21.819712 96.397415,20.455004 
	C83.589462,16.224358 70.243080,15.648155 56.991795,17.112793 
	C47.558441,18.155441 38.271507,20.610737 28.965132,22.645552 
	C26.923393,23.091972 24.031273,23.505241 25.252459,27.097496 
	C26.336824,30.287287 28.436932,29.471003 30.726257,28.798845 
	C34.268730,27.758757 37.868176,26.912687 40.855186,26.137091 
	C40.550415,43.038090 40.172222,59.586758 39.997723,76.137573 
	C39.938335,81.770302 40.117500,87.442230 40.804695,93.020233 
	C40.975639,94.407791 43.460430,96.282410 45.043453,96.455742 
	C46.120762,96.573708 47.969715,94.311661 48.576618,92.762459 
	C49.199318,91.172935 48.730759,89.155907 48.739376,86.373840 
M114.503777,125.441055 
	C114.503777,125.441055 114.516792,125.485298 114.503777,125.441055 
z"/>
<path fill="#292E55" opacity="1.000000" stroke="none" 
	d="
M1.000000,111.333328 
	C2.196930,111.247185 3.393861,111.494362 4.824201,112.397209 
	C4.964403,116.382835 4.871194,119.712791 4.777986,123.042755 
	C3.770559,123.024902 2.763133,123.007050 1.377853,122.994598 
	C1.000000,120.629440 1.000000,118.258888 1.290929,115.447540 
	C2.079942,114.772240 2.578026,114.537735 3.076111,114.303238 
	C2.384075,113.868828 1.692037,113.434410 1.000000,113.000000 
	C1.000000,112.555557 1.000000,112.111107 1.000000,111.333328 
z"/>
<path fill="#1E2536" opacity="1.000000" stroke="none" 
	d="
M1.000000,113.333328 
	C1.692037,113.434410 2.384075,113.868828 3.076111,114.303238 
	C2.578026,114.537735 2.079942,114.772240 1.290929,115.003372 
	C1.000000,114.555557 1.000000,114.111107 1.000000,113.333328 
z"/>
<path fill="#F1F2F4" opacity="1.000000" stroke="none" 
	d="
M48.739586,86.849915 
	C48.730759,89.155907 49.199318,91.172935 48.576618,92.762459 
	C47.969715,94.311661 46.120762,96.573708 45.043453,96.455742 
	C43.460430,96.282410 40.975639,94.407791 40.804695,93.020233 
	C40.117500,87.442230 39.938335,81.770302 39.997723,76.137573 
	C40.172222,59.586758 40.550415,43.038090 40.855186,26.137091 
	C37.868176,26.912687 34.268730,27.758757 30.726257,28.798845 
	C28.436932,29.471003 26.336824,30.287287 25.252459,27.097496 
	C24.031273,23.505241 26.923393,23.091972 28.965132,22.645552 
	C38.271507,20.610737 47.558441,18.155441 56.991795,17.112793 
	C70.243080,15.648155 83.589462,16.224358 96.397415,20.455004 
	C100.528954,21.819712 104.697014,24.017532 107.965073,26.852478 
	C114.386002,32.422462 114.534805,40.297806 108.829681,46.659775 
	C100.669907,55.759022 89.600830,59.414890 78.161003,61.554379 
	C68.620216,63.338707 58.841637,63.851540 48.739376,64.975220 
	C48.739376,71.803352 48.739376,79.088593 48.739586,86.849915 
M98.076851,40.263428 
	C99.832993,33.016499 96.838409,27.692284 88.785179,25.261478 
	C78.072258,22.027864 67.093254,22.381285 56.165810,24.249636 
	C55.105564,24.430914 53.537731,25.627954 53.389114,26.545244 
	C51.757233,36.617565 50.360481,46.727978 48.828751,57.320168 
	C61.081928,57.557766 72.017044,56.176220 82.556381,52.245167 
	C88.693962,49.955917 94.511055,47.128323 98.076851,40.263428 
z"/>
<path fill="#6B92C0" opacity="1.000000" stroke="none" 
	d="
M84.993111,124.945595 
	C84.242149,124.862465 83.491196,124.779327 82.295135,124.286575 
	C81.174179,117.704872 83.428154,114.414246 90.005020,111.971329 
	C99.701401,111.938423 109.397789,111.905518 119.575188,112.150696 
	C120.056206,112.428772 120.126648,112.901848 119.665085,112.924492 
	C116.135887,112.967552 113.068245,112.987968 109.550507,113.004364 
	C104.317184,112.819550 99.418259,112.490402 95.963387,116.683380 
	C95.078156,117.757744 94.446968,119.654129 94.763519,120.903061 
	C94.997040,121.824463 96.894875,122.494850 98.168808,122.941467 
	C100.050423,123.601105 102.036530,123.962700 103.978134,124.451210 
	C98.630371,124.579048 93.282600,124.706879 87.137650,124.811958 
	C85.891350,124.841331 85.442230,124.893463 84.993111,124.945595 
z"/>
<path fill="#7184BF" opacity="1.000000" stroke="none" 
	d="
M89.541245,111.894066 
	C83.428154,114.414246 81.174179,117.704872 81.929909,124.189972 
	C76.639587,124.576210 71.269386,124.649445 65.567192,124.319435 
	C66.394112,123.046432 67.480064,122.050476 68.725525,121.330406 
	C72.560547,119.113159 72.667656,117.448914 69.102577,114.737999 
	C68.005753,113.903961 67.028610,112.912537 65.996658,111.993187 
	C73.690262,111.934387 81.383865,111.875595 89.541245,111.894066 
z"/>
<path fill="#8C71D9" opacity="1.000000" stroke="none" 
	d="
M33.977978,124.508789 
	C33.540546,124.614937 33.103111,124.721085 31.886475,124.805511 
	C28.076077,124.684441 25.044878,124.585075 21.928221,124.154999 
	C22.230434,119.907829 22.618107,115.991386 23.459671,112.008957 
	C26.986044,111.819252 30.058523,111.695534 33.131004,111.571815 
	C33.131004,111.571815 33.095886,111.804787 33.242386,112.124161 
	C33.922676,112.633362 34.456459,112.823196 35.051247,113.353607 
	C35.944038,115.178825 36.775829,116.663483 37.648254,118.220673 
	C35.991341,118.850845 34.710464,119.337990 33.547050,119.780464 
	C33.713974,121.612022 33.845974,123.060410 33.977978,124.508789 
z"/>
<path fill="#7D85CF" opacity="1.000000" stroke="none" 
	d="
M65.539017,111.915894 
	C67.028610,112.912537 68.005753,113.903961 69.102577,114.737999 
	C72.667656,117.448914 72.560547,119.113159 68.725525,121.330406 
	C67.480064,122.050476 66.394112,123.046432 65.112915,124.203705 
	C62.617226,124.545380 60.243805,124.599556 57.431458,124.189308 
	C57.163998,121.063194 57.335464,118.401505 57.507286,115.734261 
	C56.307228,114.745834 54.653706,113.383911 53.000183,112.021988 
	C57.027248,111.960854 61.054314,111.899727 65.539017,111.915894 
z"/>
<path fill="#64A5C7" opacity="1.000000" stroke="none" 
	d="
M110.000603,113.008377 
	C113.068245,112.987968 116.135887,112.967552 120.084625,112.963425 
	C121.648170,113.848900 122.822304,114.666084 122.920799,115.597061 
	C123.215385,118.381615 123.088943,121.210693 123.126884,124.022392 
	C122.945000,124.122452 122.763115,124.222519 121.934250,124.338577 
	C120.510895,124.450859 119.734528,124.547150 118.958153,124.643440 
	C118.799835,124.555832 118.641525,124.468216 118.094345,123.955917 
	C116.159439,123.782181 114.613380,124.033119 113.067329,124.284065 
	C112.246498,124.387672 111.425674,124.491287 110.267853,124.155708 
	C107.896881,121.049690 105.344788,118.467125 109.113663,115.186623 
	C109.641441,114.727234 109.716164,113.747337 110.000603,113.008377 
z"/>
<path fill="#8A66CF" opacity="1.000000" stroke="none" 
	d="
M23.005779,112.074936 
	C22.618107,115.991386 22.230434,119.907829 21.508989,124.217255 
	C15.802043,124.372398 10.428867,124.134575 5.055691,123.896751 
	C5.055691,123.896751 4.972864,123.451530 4.875425,123.247147 
	C4.871194,119.712791 4.964403,116.382835 5.072584,112.670959 
	C5.800637,112.126259 6.513716,111.963463 8.048286,111.813583 
	C13.581779,111.909317 18.293777,111.992126 23.005779,112.074936 
M16.448727,117.737846 
	C16.844162,116.469109 17.239595,115.200371 17.611048,114.008583 
	C14.186131,114.320435 11.893631,114.268616 9.755744,114.818222 
	C8.399188,115.166969 6.124920,116.678375 6.247821,117.204803 
	C6.704010,119.158821 7.546563,121.590347 9.066443,122.581917 
	C10.889201,123.771095 12.763138,122.794769 13.130445,119.992599 
	C13.242739,119.135910 14.841799,118.474106 16.448727,117.737846 
z"/>
<path fill="#8678D4" opacity="1.000000" stroke="none" 
	d="
M34.434761,124.610367 
	C33.845974,123.060410 33.713974,121.612022 33.547050,119.780464 
	C34.710464,119.337990 35.991341,118.850845 37.648254,118.220673 
	C36.775829,116.663483 35.944038,115.178825 35.380875,113.341263 
	C36.430225,112.668098 37.210953,112.347839 37.991676,112.027588 
	C39.386471,111.967186 40.781261,111.906799 42.645531,112.270462 
	C44.499458,114.443398 45.883907,116.192291 47.268360,117.941185 
	C46.594105,119.306122 46.807640,120.329720 47.072281,121.339928 
	C47.349415,122.397835 47.675636,123.442871 47.980400,124.493538 
	C43.617451,124.566338 39.254494,124.639145 34.434761,124.610367 
z"/>
<path fill="#699EC7" opacity="1.000000" stroke="none" 
	d="
M109.550507,113.004356 
	C109.716164,113.747337 109.641441,114.727234 109.113663,115.186623 
	C105.344788,118.467125 107.896881,121.049690 109.973022,124.035034 
	C109.850357,124.454239 109.685516,124.554947 108.888000,124.684082 
	C107.504539,124.774490 106.753761,124.836456 106.002975,124.898430 
	C105.548332,124.819321 105.093681,124.740219 104.308586,124.556168 
	C102.036530,123.962700 100.050423,123.601105 98.168808,122.941467 
	C96.894875,122.494850 94.997040,121.824463 94.763519,120.903061 
	C94.446968,119.654129 95.078156,117.757744 95.963387,116.683380 
	C99.418259,112.490402 104.317184,112.819550 109.550507,113.004356 
z"/>
<path fill="#827ED1" opacity="1.000000" stroke="none" 
	d="
M48.423637,124.593201 
	C47.675636,123.442871 47.349415,122.397835 47.072281,121.339928 
	C46.807640,120.329720 46.594105,119.306122 47.268360,117.941185 
	C45.883907,116.192291 44.499458,114.443398 43.057079,112.357040 
	C46.034496,111.962158 49.069843,111.904739 52.552685,111.934654 
	C54.653706,113.383911 56.307228,114.745834 57.507286,115.734261 
	C57.335464,118.401505 57.163998,121.063194 57.002556,124.072556 
	C54.297344,124.511101 51.582108,124.601982 48.423637,124.593201 
z"/>
<path fill="#292E55" opacity="1.000000" stroke="none" 
	d="
M23.459671,112.008957 
	C18.293777,111.992126 13.581779,111.909317 8.407183,111.738510 
	C8.390238,111.196892 8.842735,110.341789 9.280523,110.349251 
	C17.093817,110.482491 24.905331,110.720337 32.924118,111.253754 
	C30.058523,111.695534 26.986044,111.819252 23.459671,112.008957 
z"/>
<path fill="#292E55" opacity="1.000000" stroke="none" 
	d="
M5.053600,124.261856 
	C10.428867,124.134575 15.802043,124.372398 21.594450,124.547974 
	C25.044878,124.585075 28.076077,124.684441 31.555353,124.878242 
	C27.433689,125.304611 22.867048,125.691177 18.293213,125.951126 
	C14.653179,126.158005 11.002646,126.311577 7.360796,126.250198 
	C6.582134,126.237068 5.820816,125.195007 5.053600,124.261856 
z"/>
<path fill="#292E55" opacity="1.000000" stroke="none" 
	d="
M123.478195,123.876251 
	C123.088943,121.210693 123.215385,118.381615 122.920799,115.597061 
	C122.822304,114.666084 121.648170,113.848900 120.546188,112.940781 
	C120.126648,112.901848 120.056206,112.428772 120.044540,112.190079 
	C121.426765,112.372780 123.991379,112.715851 124.025650,113.228188 
	C124.258499,116.708878 123.957855,120.225250 123.478195,123.876251 
z"/>
<path fill="#699EC7" opacity="1.000000" stroke="none" 
	d="
M113.476906,124.359665 
	C114.613380,124.033119 116.159439,123.782181 117.862465,123.814880 
	C116.641785,124.210770 115.264137,124.323013 113.476906,124.359665 
z"/>
<path fill="#292E55" opacity="1.000000" stroke="none" 
	d="
M119.078171,124.871307 
	C119.734528,124.547150 120.510895,124.450859 121.661537,124.488892 
	C121.089935,124.781860 120.144066,124.940514 119.078171,124.871307 
z"/>
<path fill="#827ED1" opacity="1.000000" stroke="none" 
	d="
M37.581947,111.937904 
	C37.210953,112.347839 36.430225,112.668098 35.319870,113.000702 
	C34.456459,112.823196 33.922676,112.633362 33.194530,112.231796 
	C34.390854,111.962784 35.781532,111.905502 37.581947,111.937904 
z"/>
<path fill="#292E55" opacity="1.000000" stroke="none" 
	d="
M106.203140,125.123718 
	C106.753761,124.836456 107.504539,124.774490 108.623688,124.802773 
	C108.129128,125.045013 107.266212,125.197006 106.203140,125.123718 
z"/>
<path fill="#292E55" opacity="1.000000" stroke="none" 
	d="
M85.155533,125.137131 
	C85.442230,124.893463 85.891350,124.841331 86.672775,124.867462 
	C86.442703,125.073372 85.880325,125.201019 85.155533,125.137131 
z"/>
<path fill="#292E55" opacity="1.000000" stroke="none" 
	d="
M114.510284,125.463181 
	C114.516792,125.485298 114.503777,125.441055 114.510284,125.463181 
z"/>
<path fill="#22293A" opacity="1.000000" stroke="none" 
	d="
M97.966278,40.628441 
	C94.511055,47.128323 88.693962,49.955917 82.556381,52.245167 
	C72.017044,56.176220 61.081928,57.557766 48.828751,57.320168 
	C50.360481,46.727978 51.757233,36.617565 53.389114,26.545244 
	C53.537731,25.627954 55.105564,24.430914 56.165810,24.249636 
	C67.093254,22.381285 78.072258,22.027864 88.785179,25.261478 
	C96.838409,27.692284 99.832993,33.016499 97.966278,40.628441 
z"/>
<path fill="#9862E1" opacity="1.000000" stroke="none" 
	d="
M16.104357,117.730453 
	C14.841799,118.474106 13.242739,119.135910 13.130445,119.992599 
	C12.763138,122.794769 10.889201,123.771095 9.066443,122.581917 
	C7.546563,121.590347 6.704010,119.158821 6.247821,117.204803 
	C6.124920,116.678375 8.399188,115.166969 9.755744,114.818222 
	C11.893631,114.268616 14.186131,114.320435 17.611048,114.008583 
	C17.239595,115.200371 16.844162,116.469109 16.104357,117.730453 
z"/>
</svg>