<?xml version="1.0" encoding="utf-8"?>
<svg xmlns="http://www.w3.org/2000/svg" xmlns:xlink="http://www.w3.org/1999/xlink" width="500" height="126">
  <path fill="#FCFCFD" transform="matrix(1.008 0 0 1.008 52.1145 68.5289)" d="M-15.635 8.965C-18.285 8.965 -20.945 8.855 -23.375 8.635C-23.595 15.385 -23.595 36.145 -23.595 39.795C-23.595 39.795 -23.595 43.665 -23.595 43.665C-23.595 45.985 -25.585 46.985 -27.685 46.985C-29.895 46.985 -32.445 45.985 -32.665 44.555C-33.215 41.905 -33.995 20.145 -33.995 2.115C-33.995 -15.915 -32.665 -27.745 -31.125 -35.595C-35.545 -35.375 -47.155 -31.285 -48.595 -31.285C-49.595 -31.285 -51.695 -34.385 -51.695 -36.705C-51.695 -37.475 -51.475 -38.035 -51.035 -38.255C-48.705 -39.575 -27.355 -46.985 -3.035 -46.985C32.235 -46.985 51.695 -38.365 51.695 -22.985C51.695 -2.195 12.885 8.975 -15.645 8.975C-15.645 8.975 -15.635 8.965 -15.635 8.965ZM4.155 -39.575C-5.575 -39.575 -10.555 -39.355 -17.845 -37.475C-19.065 -31.725 -21.055 -21.105 -22.265 -9.275C-22.595 -5.955 -22.815 -2.085 -23.035 1.235C-22.155 1.345 -21.265 1.345 -20.385 1.345C-20.385 1.345 -19.615 1.345 -19.615 1.345C10.355 0.795 35.345 -9.275 35.345 -22.985C35.345 -37.585 15.775 -39.575 4.165 -39.575C4.165 -39.575 4.155 -39.575 4.155 -39.575Z"></path>
  <path fill="#FCFCFD" transform="matrix(1.008 0 0 1.008 57.729 101.233)" d="M19.215 3.07C17.055 7.39 10.805 16.71 0.005 16.71C-14.655 16.71 -19.885 6.59 -19.885 0C-19.885 -9.21 -11.705 -16.71 -1.705 -16.71C5.685 -16.71 11.595 -12.62 11.595 -6.25C11.595 0.45 5.345 4.09 -1.705 4.09C-4.095 4.09 -6.475 3.64 -8.865 2.84C-7.845 7.16 -4.205 9.2 -0.005 9.2C8.975 9.2 13.405 4.08 17.615 -3.64C17.955 -4.32 18.075 -4.55 18.525 -4.55C19.325 -4.55 19.885 -2.5 19.885 -0.46C19.885 0.79 19.775 2.15 19.205 3.06C19.205 3.06 19.215 3.07 19.215 3.07ZM-1.695 -9.21C-5.445 -9.21 -8.745 -5.69 -9.195 -1.14C-8.395 -0.8 -7.035 -0.68 -5.555 -0.68C-1.695 -0.68 3.195 -1.82 3.195 -5.11C3.195 -8.18 0.805 -9.2 -1.695 -9.2C-1.695 -9.2 -1.695 -9.21 -1.695 -9.21Z"></path>
  <path fill="#FCFCFD" transform="matrix(1.008 0 0 1.008 91.0233 98.3153)" d="M19.035 5.965C17.445 9.145 12.445 19.605 3.915 19.605C-1.885 19.605 -4.835 15.625 -4.835 11.195C-4.835 7.785 -2.225 2.325 -0.855 -0.735C-0.745 -1.075 -0.625 -1.305 -0.625 -1.535C-0.625 -2.105 -1.195 -2.445 -1.875 -2.445C-4.485 -2.555 -8.585 -3.355 -9.495 -3.805C-10.405 -0.505 -15.745 11.195 -18.245 11.195C-19.265 11.195 -19.725 7.675 -19.725 6.645C-19.725 5.845 -15.515 0.285 -13.585 -5.965C-14.265 -6.535 -17.445 -8.355 -17.445 -13.805C-17.445 -15.965 -15.965 -19.605 -13.125 -19.605C-9.485 -19.605 -7.785 -16.425 -7.785 -11.995C-5.965 -10.745 0.285 -10.405 3.125 -10.405C7.675 -10.405 10.055 -8.475 10.055 -4.835C10.055 -1.195 4.825 8.125 4.825 10.965C4.825 11.765 5.165 12.445 5.965 12.445C9.265 12.445 13.805 5.855 17.335 -0.735C17.675 -1.415 17.905 -1.645 18.245 -1.645C19.045 -1.645 19.725 0.405 19.725 2.445C19.725 3.695 19.495 5.055 19.045 5.965C19.045 5.965 19.035 5.965 19.035 5.965Z"></path>
  <path fill="#FCFCFD" transform="matrix(1.008 0 0 1.008 141.438 101.228)" d="M36.19 3.075C34.49 6.255 29.48 16.715 20.96 16.715C5.05 16.715 13.69 -6.475 8.12 -6.475C4.6 -6.475 -3.93 16.485 -4.95 16.485C-16.77 16.485 -9.84 -6.475 -15.07 -6.475C-20.3 -6.475 -27.34 14.095 -27.91 16.025C-27.91 16.025 -28.02 16.135 -28.02 16.135C-28.36 16.705 -31.43 16.705 -31.43 16.705C-31.43 16.705 -34.38 16.705 -34.73 16.135C-34.84 16.025 -36.89 7.955 -36.89 -4.665C-36.89 -7.275 -36.21 -15.005 -35.64 -15.695C-34.96 -16.145 -31.78 -16.715 -30.64 -16.715C-30.64 -16.715 -30.41 -16.715 -30.41 -16.715C-28.59 -16.715 -27 -16.145 -26.66 -15.915C-26.43 -15.455 -26.09 -10.795 -26.09 -9.205C-26.09 -6.705 -26.32 -3.635 -26.43 -0.565C-23.47 -7.725 -18.25 -16.705 -10.97 -16.705C-10.97 -16.705 -3.01 -16.705 -3.01 -1.135C-3.01 0.235 -3.12 1.595 -3.24 3.185C2.1 -16.705 12.9 -16.705 12.9 -16.705C24.72 -16.705 16.54 9.545 23.13 9.545C26.31 9.545 30.97 2.955 34.5 -3.635C34.84 -4.315 35.07 -4.545 35.41 -4.545C36.21 -4.545 36.77 -2.495 36.89 -0.455C36.89 -0.455 36.89 -0.225 36.89 -0.225C36.89 1.025 36.66 2.275 36.21 3.065C36.21 3.065 36.19 3.075 36.19 3.075Z"></path>
  <path fill="#FCFCFD" transform="matrix(1.008 0 0 1.008 195.447 101.233)" d="M26.14 3.07C24.55 6.25 19.55 16.71 10.91 16.71C7.39 16.71 4.89 15.12 3.29 12.16C0.11 14.89 -4.1 16.71 -8.64 16.71C-18.64 16.71 -26.82 9.21 -26.82 0C-26.82 -9.21 -18.64 -16.71 -8.64 -16.71C-5 -16.71 -1.59 -15.57 1.25 -13.75C1.36 -14.55 1.48 -15 1.59 -15.23C2.27 -16.25 2.84 -16.71 5.45 -16.71C8.06 -16.71 9.65 -16.37 10.22 -15.23C10.33 -15 10.45 -13.98 10.45 -12.62C10.45 -9.32 10.11 -3.41 10.11 0.11C10.11 5.23 10.68 9.54 13.06 9.54C16.36 9.54 20.9 2.95 24.43 -3.64C24.77 -4.32 25 -4.55 25.34 -4.55C26.14 -4.55 26.82 -2.5 26.82 -0.46C26.82 0.79 26.59 2.15 26.14 3.06C26.14 3.06 26.14 3.07 26.14 3.07ZM0.68 -0.57C0.45 -5.34 -2.39 -9.21 -8.64 -9.21C-12.73 -9.21 -16.14 -5.12 -16.14 0C-16.14 5.12 -12.73 9.21 -8.64 9.21C-2.16 9.21 0.68 5.12 0.68 0C0.68 0 0.68 -0.57 0.68 -0.57Z"></path>
  <path fill="#FCFCFD" transform="matrix(1.008 0 0 1.008 251.235 101.233)" d="M19.215 3.07C17.055 7.39 10.805 16.71 0.005 16.71C-14.655 16.71 -19.885 6.59 -19.885 0C-19.885 -9.21 -11.705 -16.71 -1.705 -16.71C5.685 -16.71 11.595 -12.62 11.595 -6.25C11.595 0.45 5.345 4.09 -1.705 4.09C-4.095 4.09 -6.475 3.64 -8.865 2.84C-7.845 7.16 -4.205 9.2 -0.005 9.2C8.975 9.2 13.405 4.08 17.615 -3.64C17.955 -4.32 18.065 -4.55 18.525 -4.55C19.325 -4.55 19.885 -2.5 19.885 -0.46C19.885 0.79 19.775 2.15 19.205 3.06C19.205 3.06 19.215 3.07 19.215 3.07ZM-1.695 -9.21C-5.445 -9.21 -8.745 -5.69 -9.195 -1.14C-8.395 -0.8 -7.035 -0.68 -5.555 -0.68C-1.695 -0.68 3.195 -1.82 3.195 -5.11C3.195 -8.18 0.805 -9.2 -1.695 -9.2C-1.695 -9.2 -1.695 -9.21 -1.695 -9.21Z"></path>
  <path fill="#FCFCFD" transform="matrix(1.008 0 0 1.008 279.998 81.4716)" d="M12.39 22.675C10.69 25.855 5.68 36.315 -2.84 36.315C-12.16 36.315 -12.27 16.875 -12.39 16.085C-12.73 9.155 -12.96 0.405001 -12.96 -9.945C-12.96 -20.295 -12.28 -32.565 -11.6 -34.045C-11.03 -34.845 -7.85 -36.315 -6.71 -36.315C-4.89 -36.315 -3.07 -34.945 -2.73 -34.385C-2.5 -33.585 -2.16 -28.245 -2.16 -19.835C-2.16 -9.495 -3.18 5.735 -3.18 17.555C-3.18 17.555 -3.18 21.645 -3.18 21.645C-3.18 25.845 -2.61 29.145 -0.68 29.145C2.5 29.145 7.16 22.555 10.69 15.965C11.03 15.285 11.26 15.055 11.6 15.055C12.4 15.055 12.96 17.105 12.96 19.145C12.96 19.145 12.96 19.825 12.96 19.825C12.96 20.845 12.73 21.985 12.39 22.665C12.39 22.665 12.39 22.675 12.39 22.675Z"></path>
  <path fill="#FCFCFD" transform="matrix(1.008 0 0 1.008 299.473 81.4716)" d="M12.39 22.675C10.69 25.855 5.68 36.315 -2.84 36.315C-12.16 36.315 -12.27 16.875 -12.39 16.085C-12.73 9.155 -12.96 0.405001 -12.96 -9.945C-12.96 -20.295 -12.28 -32.565 -11.6 -34.045C-11.03 -34.845 -7.85 -36.315 -6.71 -36.315C-4.89 -36.315 -3.07 -34.945 -2.73 -34.385C-2.5 -33.585 -2.16 -28.245 -2.16 -19.835C-2.16 -9.495 -3.18 5.735 -3.18 17.555C-3.18 17.555 -3.18 21.645 -3.18 21.645C-3.18 25.845 -2.61 29.145 -0.68 29.145C2.5 29.145 7.16 22.555 10.69 15.965C11.03 15.285 11.26 15.055 11.6 15.055C12.4 15.055 12.96 17.105 12.96 19.145C12.96 19.145 12.96 19.825 12.96 19.825C12.96 20.845 12.73 21.985 12.39 22.665C12.39 22.665 12.39 22.675 12.39 22.675Z"></path>
  <path fill="#FCFCFD" transform="matrix(1.008 0 0 1.008 217.845 81.9958)" d="M49.27 -24.865C49.27 -22.365 46.77 -21.725 45.66 -21.725C45.66 -21.725 45.57 -21.725 45.57 -21.725C44.83 -21.725 30.41 -26.625 9.98 -28.285C10.9 -27.635 11.64 -26.715 11.83 -25.515C11.83 -25.235 10.91 -19.505 10.91 -1.475C10.91 -1.475 10.91 0.005 10.91 0.005C10.91 15.445 11 34.405 11 34.405C11 36.165 9.8 36.905 8.23 37.085C7.95 37.085 7.77 37.175 7.49 37.175C6.1 37.175 4.62 36.625 4.35 35.695C2.22 29.035 -0.740001 0.645 -0.74 -13.965C-0.74 -21.085 -0.0899999 -26.535 1.76 -27.925C1.76 -27.925 2.13 -28.295 2.96 -28.665C2.31 -28.665 1.57 -28.665 0.83 -28.755C0.83 -28.755 -1.11 -28.755 -1.11 -28.755C-18.12 -28.755 -35.22 -23.765 -35.22 -17.845C-35.22 -17.845 -35.22 -17.475 -35.22 -17.475C-34.76 -14.335 -30.32 -13.595 -25.79 -13.595C-21.26 -13.595 -16.91 -14.335 -16.18 -14.335C-16.18 -14.335 -16.09 -14.335 -16.09 -14.335C-14.89 -14.145 -13.59 -12.765 -13.5 -11.935C-13.5 -11.935 -13.5 -11.845 -13.5 -11.845C-13.5 -10.555 -17.38 -9.345 -22.47 -8.605C-24.5 -8.235 -26.72 -8.055 -28.94 -8.055C-38.18 -8.055 -48.17 -10.825 -49.19 -17.855C-49.28 -18.135 -49.28 -18.405 -49.28 -18.685C-49.28 -26.725 -33.66 -37.175 -4.35 -37.175C-3.15 -37.175 -1.95 -37.175 -0.74 -37.085C31.53 -36.255 47.98 -26.635 48.63 -26.635C49.09 -26.355 49.28 -25.805 49.28 -25.065C49.28 -25.065 49.28 -24.875 49.28 -24.875C49.28 -24.875 49.27 -24.865 49.27 -24.865Z"></path>
  <path fill="#A0A0A0" transform="matrix(1.008 0 0 1.008 465.41 91.3601)" d="M25.98 7.085C25.98 7.085 23.25 -7.085 13.18 -7.085C13.18 -7.085 -16.72 -7.085 -16.72 -7.085C-16.72 -7.085 -25.98 -3.575 -24.62 7.085C-24.62 7.085 25.98 7.085 25.98 7.085Z"></path>
  <path fill="#A0A0A0" transform="matrix(1.008 0 0 1.008 465.274 100.916)" d="M-20.185 18.525C-20.185 18.525 18.465 18.525 18.465 18.525C18.465 18.525 12.845 -3.415 26.115 -2.395C27.435 -4.085 11.875 -18.525 0.605 -14.485C-22.745 -6.105 -27.435 -13.695 -27.435 -13.695C-27.435 -13.695 -24.615 18.525 -24.615 18.525L-20.185 18.525Z"></path>
  <path fill="#F4F4F4" transform="matrix(1.008 0 0 1.008 383.106 98.1943)" d="M18.86 -16.415C18.86 -16.415 -0.299999 -17.825 -18.86 17.825"></path>
  <path fill="#F4F4F4" transform="matrix(1.008 0 0 1.008 416.774 100.619)" d="M-60.54 18.82C-60.54 18.82 27.04 18.82 27.04 18.82C27.04 18.82 39.1 -16.26 60.54 -16.26C60.54 -16.26 45.69 -16.26 45.69 -16.26L-15.43 -18.82L-60.54 18.82Z"></path>
  <path fill="#BABABA" transform="matrix(1.008 0 0 1.008 389.598 100.392)" d="M47.19 19.105C47.19 19.105 44.46 -10.135 -0.07 -14.615C-44.61 -19.105 -47.19 -11.535 -47.19 -11.535C-47.19 -11.535 -29.54 2.155 -42.72 19.035C-42.72 19.035 47.19 19.095 47.19 19.095C47.19 19.095 47.19 19.105 47.19 19.105Z"></path>
  <path fill="white" transform="matrix(1.008 0 0 1.008 368.889 91.1786)" d="M41.935 -0.475C23.925 -7.915 12.135 14.935 12.135 14.935C12.135 14.935 -41.945 14.935 -41.945 14.935C-41.945 14.935 -34.295 6.565 -29.445 -4.185C-24.595 -14.935 29.505 -6.895 41.945 -0.475C41.945 -0.475 41.935 -0.475 41.935 -0.475Z"></path>
  <path fill="#636363" transform="matrix(1.008 0 0 1.008 389.064 118.43)" d="M-43.97 -2.3C-43.97 -2.3 45.9 -2.3 45.9 -2.3L45.9 2.3C45.9 2.3 -43.97 2.3 -43.97 2.3C-45.04 2.3 -45.9 1.43 -45.9 0.37C-45.9 0.37 -45.9 -0.37 -45.9 -0.37C-45.9 -1.44 -45.03 -2.3 -43.97 -2.3Z"></path>
  <path fill="#636363" transform="matrix(-1.008 -8.81222e-08 8.81222e-08 -1.008 467.048 118.43)" d="M-19.035 -2.3L20.975 -2.3L20.975 2.3C20.975 2.3 -19.035 2.3 -19.035 2.3C-20.105 2.3 -20.975 1.43 -20.975 0.36C-20.975 0.36 -20.975 -0.36 -20.975 -0.36C-20.975 -1.43 -20.105 -2.3 -19.035 -2.3Z"></path>
  <path fill="#636363" transform="matrix(1.008 0 0 1.008 440.603 121.242)" d="M6.81 -5.09C6.81 -5.09 12.49 -5.09 12.49 -5.09C12.49 0.62 7 5.09 0 5.09C-7 5.09 -12.49 0.62 -12.49 -5.09C-12.49 -5.09 -6.81 -5.09 -6.81 -5.09"></path>
  <path fill="#F4F4F4" transform="matrix(1.008 0 0 1.008 440.613 119.559)" d="M0 -2.24C1.88881 -2.24 3.42 -1.23712 3.42 0C3.42 1.23712 1.88881 2.24 0 2.24C-1.88881 2.24 -3.42 1.23712 -3.42 0C-3.42 -1.23712 -1.88881 -2.24 0 -2.24Z"></path>
  <path fill="#F4F4F4" transform="matrix(1.008 0 0 1.008 436.646 100.614)" d="M25.975 -16.255L-35.145 -18.815C-35.145 -18.815 -40.825 -14.075 -40.825 -14.075C-2.925 -7.885 0.375 17.555 0.515 18.815C0.515 18.815 7.335 18.815 7.335 18.815C7.335 18.815 19.385 -16.255 40.825 -16.255C40.825 -16.255 25.975 -16.255 25.975 -16.255Z"></path>
</svg>